<?xml version="1.0" encoding="utf-8"?>
<!-- Generator: Adobe Illustrator 16.0.0, SVG Export Plug-In . SVG Version: 6.00 Build 0)  -->
<!DOCTYPE svg PUBLIC "-//W3C//DTD SVG 1.1//EN" "http://www.w3.org/Graphics/SVG/1.1/DTD/svg11.dtd">
<svg version="1.1" id="Layer_1" xmlns="http://www.w3.org/2000/svg" xmlns:xlink="http://www.w3.org/1999/xlink" x="0px" y="0px"
	 width="400px" height="400px" viewBox="0 0 400 400" enable-background="new 0 0 400 400" xml:space="preserve">
<g>
	<path fill="#E71787" d="M86.521,0.195c-23.774,0-44.128,8.422-61.06,25.441C8.705,42.394,0.283,62.747,0.283,86.697v0.789
		L198.903,211.8L198.815,0.195H86.521z"/>
	<path fill="#942C8D" d="M25.462,374.451c16.932,16.844,37.285,25.354,61.06,25.354h112.294V215.923L0.283,315.848
		C0.897,338.481,9.232,358.045,25.462,374.451z"/>
	<path fill="#BC238B" d="M0.283,313.215c0,0.877,0,1.755,0,2.633l198.532-99.925l0.088-4.123L0.283,87.486V313.215z"/>
	<path fill="#EB1C77" d="M399.716,87.311v-0.614c0-23.951-8.421-44.304-25.178-61.061c-16.933-17.02-37.285-25.441-61.06-25.441
		H198.815l0.088,211.604l0.351-9.738L399.716,87.311z"/>
	<path fill="#EB2361" d="M198.903,211.8l-0.088,4.123v183.882h114.664c23.774,0,44.127-8.51,61.06-25.354
		c15.791-16.055,24.126-35.092,25.091-57.112L199.254,202.062L198.903,211.8z"/>
	<path fill="#EB325C" d="M399.716,87.311l-200.462,114.75l200.375,115.277c0-1.403,0.087-2.72,0.087-4.124V87.311z"/>
	<g>
		<path fill="#FFFFFF" d="M308.654,73.976c-0.176-13.072-4.737-24.125-13.861-33.425c-9.3-9.299-20.529-13.861-33.602-13.861
			H136.615c-12.984,0-24.213,4.562-33.337,13.861c-9.299,9.3-13.949,20.354-13.949,33.425v68.254
			c0,13.071,4.649,24.301,13.949,33.601c9.124,9.124,20.354,13.686,33.337,13.686h124.576c23.951-0.702,40.181,7.194,48.603,23.336
			L308.654,73.976z M175.743,45.552c0-1.229,0.439-2.369,1.316-3.246c0.965-1.053,1.93-1.492,3.071-1.492h51.585
			c1.315,0,2.281,0.439,3.158,1.492c1.053,0.877,1.491,2.018,1.491,3.246c0,1.316-0.438,2.281-1.491,3.333
			c-0.877,0.877-1.843,1.316-3.158,1.316h-51.673c-1.141,0-2.193-0.438-2.983-1.316C176.182,47.833,175.743,46.868,175.743,45.552z
			 M169.689,42.042c1.053,0.965,1.491,2.105,1.491,3.509c0,1.316-0.438,2.632-1.491,3.597c-0.965,1.053-2.281,1.492-3.597,1.492
			c-1.403,0-2.544-0.439-3.509-1.492c-1.053-0.965-1.492-2.281-1.492-3.597c0-1.404,0.438-2.544,1.492-3.509
			c0.965-1.053,2.105-1.492,3.509-1.492c1.316,0,2.457,0.439,3.509,1.492H169.689z"/>
		<path fill="#FFFFFF" d="M310.934,325.936v-68.341c0-13.071-4.562-24.214-13.861-33.426c-9.299-9.299-20.528-13.86-33.512-13.86
			H139.072c-23.95,0.701-40.093-7.019-48.603-23.161l1.141,138.788c0,12.984,4.649,24.038,13.949,33.338
			c9.299,9.3,20.441,13.949,33.513,13.949h124.489c12.983,0,24.213-4.649,33.512-13.949
			C306.373,349.974,310.934,338.92,310.934,325.936z M155.828,353.396c0.965-0.965,2.018-1.404,3.246-1.404h78.957
			c1.229,0,2.281,0.439,3.159,1.404c0.964,0.878,1.403,2.018,1.403,3.334c0,1.228-0.439,2.281-1.403,3.246
			c-0.878,0.877-1.931,1.315-3.159,1.315h-78.957c-1.228,0-2.281-0.438-3.246-1.315c-0.877-0.965-1.316-2.019-1.316-3.246
			C154.512,355.413,154.951,354.273,155.828,353.396z"/>
		<g>
			<path fill="#6E2B8F" d="M150.389,73.625c-1.404,1.93-2.72,3.596-3.773,5.439c-1.842,2.72-2.807,5.878-2.982,9.475
				c-0.175,3.596,0.438,8.773,2.018,15.177c2.456,10.44,12.457,24.652,30.179,42.286c4.474,4.474,10.089,8.597,16.844,12.194
				c3.246,1.842,6.843,3.597,10.703,5.176c10.352,4.123,18.774,6.229,25.179,6.404c7.457-0.175,14.651-3.597,21.494-10.615
				c1.141-1.141,2.192-3.246,2.808-6.405c0.613-2.72,0.876-5,0.876-6.843c0-1.316-0.263-2.457-0.876-3.246l-1.054-0.702
				c-11.756-5.878-19.125-9.475-21.757-10.703c-0.176,0-0.176,0-0.176,0c-1.578-0.702-3.158-0.702-4.649,0l-1.667,1.228
				c-5.176,6.492-8.158,10.089-9.123,11.054c-1.054,1.053-2.194,1.316-3.598,1.141c-4.737-1.842-9.035-3.685-12.721-5.79
				c-4.298-2.457-7.896-5.176-10.791-8.071c-3.597-3.597-8.422-9.475-14.476-17.809c-0.965-1.404-1.404-2.983-0.965-4.563
				l0.965-2.018c2.983-2.982,5.176-5.527,6.492-7.72c1.228-2.105,1.579-4.123,0.702-6.316c-5.176-12.458-8.334-19.739-9.299-21.933
				c-1.141-1.93-3.86-2.982-8.159-2.982c-1.579,0-3.159,0.175-5.088,0.438C155.565,68.098,153.109,70.116,150.389,73.625z"/>
			<path fill="#6E2B8F" d="M187.586,275.491c-2.72,2.72-3.948,6.054-3.86,9.914c-0.087,3.685,1.141,6.843,3.86,9.563
				s6.053,4.035,9.913,4.123c3.685-0.088,6.843-1.403,9.563-4.123s4.036-5.878,4.212-9.563c-0.176-3.86-1.492-7.194-4.212-9.914
				c-2.72-2.719-5.878-4.035-9.563-3.859C193.64,271.456,190.306,272.772,187.586,275.491z"/>
			<path fill="#6E2B8F" d="M258.559,285.405c0-3.86-1.315-7.194-4.035-9.914c-2.72-2.719-5.878-4.035-9.737-3.859
				c-3.861-0.176-7.019,1.141-9.738,3.859c-2.808,2.72-4.036,6.054-4.036,9.914c0,3.685,1.229,6.843,4.036,9.563
				c2.72,2.72,5.877,4.035,9.738,4.123c3.859-0.088,7.018-1.403,9.737-4.123S258.559,289.09,258.559,285.405z"/>
			<path fill="#6E2B8F" d="M137.054,285.405c0,3.685,1.316,6.843,4.036,9.563s5.878,4.035,9.738,4.123
				c3.86-0.088,7.019-1.403,9.738-4.123c2.719-2.72,3.948-5.878,3.948-9.563c0-3.86-1.229-7.194-3.948-9.914
				c-2.72-2.719-5.878-4.035-9.738-3.859c-3.86-0.176-7.019,1.141-9.738,3.859C138.37,278.211,137.054,281.545,137.054,285.405z"/>
		</g>
	</g>
</g>
</svg>
